<?xml version="1.0" encoding="UTF-8" standalone="no"?>
<!-- Created with Inkscape (http://www.inkscape.org/) -->

<svg
   width="512"
   height="512"
   viewBox="0 0 512 512"
   version="1.1"
   id="svg5"
   inkscape:version="1.1.2 (0a00cf5339, 2022-02-04, custom)"
   sodipodi:docname="icon.svg"
   inkscape:export-filename="D:\dev\device-tester\app\resources\icon.png"
   inkscape:export-xdpi="96"
   inkscape:export-ydpi="96"
   xmlns:inkscape="http://www.inkscape.org/namespaces/inkscape"
   xmlns:sodipodi="http://sodipodi.sourceforge.net/DTD/sodipodi-0.dtd"
   xmlns="http://www.w3.org/2000/svg"
   xmlns:svg="http://www.w3.org/2000/svg">
  <sodipodi:namedview
     id="namedview7"
     pagecolor="#505050"
     bordercolor="#eeeeee"
     borderopacity="1"
     inkscape:pageshadow="0"
     inkscape:pageopacity="0"
     inkscape:pagecheckerboard="0"
     inkscape:document-units="px"
     showgrid="false"
     inkscape:zoom="0.85253906"
     inkscape:cx="218.7583"
     inkscape:cy="383.56014"
     inkscape:window-width="2560"
     inkscape:window-height="1369"
     inkscape:window-x="-8"
     inkscape:window-y="-8"
     inkscape:window-maximized="1"
     inkscape:current-layer="layer1" />
  <defs
     id="defs2">
    <marker
       style="overflow:visible"
       id="Arrow1Lstart"
       refX="0.0"
       refY="0.0"
       orient="auto"
       inkscape:stockid="Arrow1Lstart"
       inkscape:isstock="true">
      <path
         transform="scale(0.8) translate(12.5,0)"
         style="fill-rule:evenodd;fill:context-stroke;stroke:context-stroke;stroke-width:1.0pt"
         d="M 0.0,0.0 L 5.0,-5.0 L -12.5,0.0 L 5.0,5.0 L 0.0,0.0 z "
         id="path1146" />
    </marker>
  </defs>
  <g
     inkscape:label="Ebene 1"
     inkscape:groupmode="layer"
     id="layer1">
    <rect
       style="fill:#094d1c;fill-opacity:1;stroke:#000000;stroke-width:2.6548;stroke-miterlimit:4;stroke-dasharray:none;stroke-opacity:1;paint-order:stroke fill markers"
       id="pcb_rect"
       width="509.34518"
       height="509.34518"
       x="1.3274"
       y="1.3274"
       inkscape:label="#pcb_rect" />
    <ellipse
       style="fill:#ffeb47;fill-opacity:1;stroke:#000000;stroke-width:2.08254;stroke-miterlimit:4;stroke-dasharray:none;stroke-opacity:1;paint-order:stroke fill markers"
       id="path1482-9"
       cx="41"
       cy="57"
       rx="14.95873"
       ry="14.958732" />
    <ellipse
       style="fill:#ffeb47;fill-opacity:1;stroke:#000000;stroke-width:2.08254;stroke-miterlimit:4;stroke-dasharray:none;stroke-opacity:1;paint-order:stroke fill markers"
       id="path1482-9-3"
       cx="41"
       cy="154.5"
       rx="14.95873"
       ry="14.958732" />
    <ellipse
       style="fill:#ffeb47;fill-opacity:1;stroke:#000000;stroke-width:2.08254;stroke-miterlimit:4;stroke-dasharray:none;stroke-opacity:1;paint-order:stroke fill markers"
       id="path1482-9-3-5"
       cx="41"
       cy="251.90001"
       rx="14.95873"
       ry="14.958732" />
    <ellipse
       style="fill:#ffeb47;fill-opacity:1;stroke:#000000;stroke-width:2.08254;stroke-miterlimit:4;stroke-dasharray:none;stroke-opacity:1;paint-order:stroke fill markers"
       id="path1482-9-3-5-2"
       cx="41"
       cy="349.29999"
       rx="14.95873"
       ry="14.958732" />
    <ellipse
       style="fill:#ffeb47;fill-opacity:1;stroke:#000000;stroke-width:2.08254;stroke-miterlimit:4;stroke-dasharray:none;stroke-opacity:1;paint-order:stroke fill markers"
       id="path1482-9-3-5-2-4"
       cx="41"
       cy="446.70001"
       rx="14.95873"
       ry="14.958732" />
    <ellipse
       style="fill:#ffeb47;fill-opacity:1;stroke:#000000;stroke-width:2.08254;stroke-miterlimit:4;stroke-dasharray:none;stroke-opacity:1;paint-order:stroke fill markers"
       id="path1482-9-9"
       cx="471"
       cy="57"
       rx="14.95873"
       ry="14.958732" />
    <ellipse
       style="fill:#ffeb47;fill-opacity:1;stroke:#000000;stroke-width:2.08254;stroke-miterlimit:4;stroke-dasharray:none;stroke-opacity:1;paint-order:stroke fill markers"
       id="path1482-9-3-1"
       cx="471"
       cy="154.5"
       rx="14.95873"
       ry="14.958732" />
    <ellipse
       style="fill:#ffeb47;fill-opacity:1;stroke:#000000;stroke-width:2.08254;stroke-miterlimit:4;stroke-dasharray:none;stroke-opacity:1;paint-order:stroke fill markers"
       id="path1482-9-3-5-21"
       cx="471"
       cy="251.90002"
       rx="14.95873"
       ry="14.958732" />
    <ellipse
       style="fill:#ffeb47;fill-opacity:1;stroke:#000000;stroke-width:2.08254;stroke-miterlimit:4;stroke-dasharray:none;stroke-opacity:1;paint-order:stroke fill markers"
       id="path1482-9-3-5-2-8"
       cx="471"
       cy="349.30002"
       rx="14.95873"
       ry="14.958732" />
    <ellipse
       style="fill:#ffeb47;fill-opacity:1;stroke:#000000;stroke-width:2.08254;stroke-miterlimit:4;stroke-dasharray:none;stroke-opacity:1;paint-order:stroke fill markers"
       id="path1482-9-3-5-2-4-2"
       cx="471"
       cy="446.70004"
       rx="14.95873"
       ry="14.958732" />
    <g
       id="g27271"
       transform="matrix(1.1428571,0,0,1.1428571,109.71429,109.71429)">
      <path
         d="M 200,48 H 56 a 7.99993,7.99993 0 0 0 -8,8 v 144 a 7.99993,7.99993 0 0 0 8,8 h 144 a 7.99993,7.99993 0 0 0 8,-8 V 56 a 7.99993,7.99993 0 0 0 -8,-8 z m -44,108 h -56 v -56 h 56 z"
         opacity="0.2"
         id="path27260" />
      <path
         d="m 156,92 h -56 a 8.00039,8.00039 0 0 0 -8,8 v 56 a 8.00039,8.00039 0 0 0 8,8 h 56 a 8.00039,8.00039 0 0 0 8,-8 v -56 a 8.00039,8.00039 0 0 0 -8,-8 z m -8,56 h -40 v -40 h 40 z m 84,-4 h -16 v -32 h 16 a 8,8 0 0 0 0,-16 H 216 V 56 A 16.01833,16.01833 0 0 0 200,40 H 160 V 24 a 8,8 0 0 0 -16,0 V 40 H 112 V 24 A 8,8 0 0 0 96,24 V 40 H 56 A 16.01833,16.01833 0 0 0 40,56 V 96 H 24 a 8,8 0 0 0 0,16 h 16 v 32 H 24 a 8,8 0 0 0 0,16 h 16 v 40 a 16.01833,16.01833 0 0 0 16,16 h 40 v 16 a 8,8 0 0 0 16,0 v -16 h 32 v 16 a 8,8 0 0 0 16,0 v -16 h 40 a 16.01833,16.01833 0 0 0 16,-16 v -40 h 16 a 8,8 0 0 0 0,-16 z m -32,56 H 56 V 56 h 144 l 0.003,47.93555 c -2.4e-4,0.022 -0.003,0.043 -0.003,0.0644 0,0.022 0.003,0.043 0.003,0.0644 l 0.003,47.80664 c -7.3e-4,0.0435 -0.007,0.0854 -0.007,0.12891 0,0.0435 0.006,0.0855 0.007,0.12891 l 0.003,47.8706 z"
         id="path27262" />
    </g>
  </g>
</svg>
